<svg width="25" height="15" viewBox="0 0 25 15" fill="none" xmlns="http://www.w3.org/2000/svg">
<path d="M24.1576 6.5638H3.1861L9.07148 1.48004C9.42366 1.17564 9.46244 0.643646 9.15805 0.291811C8.85484 -0.0603752 8.32244 -0.0991584 7.97023 0.20484L0.29188 6.83807C0.10815 6.99634 0.00198335 7.2263 1.76844e-05 7.46919C-0.00154934 7.71169 0.101089 7.94322 0.282081 8.10423L5.28321 12.564L7.90367 14.6364C8.05802 14.759 8.24292 14.8181 8.42587 14.8181C8.67425 14.8181 8.92105 14.7084 9.08755 14.4985C9.37627 14.1334 9.31398 13.6037 8.94926 13.315L6.36641 11.2747L2.97463 8.24874H24.1577C24.6227 8.24874 25 7.87188 25 7.40647C25.0004 6.94146 24.6227 6.56381 24.1577 6.56381L24.1576 6.5638Z" fill="black"/>
</svg>
