<svg width="30" height="30" viewBox="0 0 30 30" fill="none" xmlns="http://www.w3.org/2000/svg">
<path d="M15 30C12.9754 30 11.011 29.6034 9.16126 28.821C7.37501 28.0655 5.77087 26.984 4.39346 25.6065C3.01604 24.2291 1.93451 22.625 1.179 20.8387C0.396591 18.989 0 17.0246 0 15C0 12.9754 0.396608 11.011 1.179 9.16126C1.93451 7.37501 3.01604 5.77087 4.39346 4.39346C5.77087 3.01604 7.37501 1.93451 9.16126 1.179C11.011 0.396591 12.9754 0 15 0C17.0246 0 18.989 0.396608 20.8387 1.179C22.625 1.93451 24.2291 3.01604 25.6065 4.39346C26.984 5.77087 28.0655 7.37501 28.821 9.16126C29.6034 11.011 30 12.9754 30 15C30 17.0246 29.6034 18.989 28.821 20.8387C28.0655 22.625 26.984 24.2291 25.6065 25.6065C24.2291 26.984 22.625 28.0655 20.8387 28.821C18.9893 29.6034 17.0246 30 15 30V30ZM15 1.03027C7.29714 1.03027 1.03044 7.29697 1.03044 14.9998C1.03044 22.7027 7.29714 28.9694 15 28.9694C22.7029 28.9694 28.9696 22.7027 28.9696 14.9998C28.9696 7.29697 22.7029 1.03027 15 1.03027V1.03027Z" fill="black"/>
<path d="M23.6058 27.1677C23.451 27.1677 23.2979 27.0983 23.1965 26.9658C23.0546 26.7808 22.8995 26.5957 22.7493 26.4168C22.2805 25.8579 21.7956 25.2801 21.6257 24.5901C21.4047 23.6928 21.6259 22.8138 21.8211 22.0385C21.9462 21.5409 22.0646 21.0712 22.0453 20.6801C22.0186 20.1407 21.8418 19.5823 21.6708 19.0422C21.4323 18.2897 21.1861 17.5116 21.3521 16.766C21.5707 15.7847 22.2662 15.0987 22.8797 14.4935C23.2114 14.1664 23.5246 13.8573 23.7131 13.5495C23.9876 13.1012 24.1741 12.5682 24.3544 12.0525C24.6379 11.2422 24.9055 10.4768 25.5009 9.98277C26.6425 9.03549 27.2683 9.04862 27.9307 9.06263C28.0811 9.06585 28.2365 9.06906 28.4032 9.05918C28.6873 9.04262 28.9308 9.2592 28.9476 9.54316C28.9644 9.8271 28.7476 10.0708 28.4636 10.0876C28.256 10.0998 28.0716 10.0959 27.9088 10.0924C27.3451 10.0805 27.0046 10.0733 26.1585 10.7755C25.783 11.087 25.5612 11.7211 25.3264 12.3925C25.1282 12.959 24.9234 13.5451 24.5914 14.0872C24.3373 14.5022 23.9639 14.8706 23.6027 15.2267C23.0654 15.7566 22.5097 16.3047 22.357 16.9899C22.2513 17.4649 22.446 18.08 22.6525 18.7311C22.8433 19.3337 23.0406 19.9565 23.0739 20.6293C23.1006 21.1737 22.9578 21.7409 22.8199 22.2897C22.646 22.9809 22.466 23.6955 22.6258 24.3438C22.7385 24.8013 23.127 25.2644 23.5384 25.7548C23.6956 25.9422 23.8582 26.1363 24.0141 26.3393C24.1872 26.5651 24.1444 26.8883 23.9186 27.0612C23.8253 27.133 23.7152 27.1677 23.6057 27.1677L23.6058 27.1677Z" fill="black"/>
<path d="M16.7093 29.9005C16.452 29.9005 16.2297 29.7081 16.1984 29.4462C16.1418 28.9689 16.0689 28.5958 15.8986 28.3256C15.5861 27.8304 15.0185 27.5055 14.4697 27.1914C14.0261 26.9376 13.5675 26.6748 13.2272 26.3133C12.8085 25.8684 12.5145 25.327 12.2551 24.8492C11.9663 24.3177 11.6936 23.8153 11.3331 23.5957C10.8091 23.2766 10.1176 23.2943 9.44893 23.3115C8.99117 23.3233 8.51779 23.3354 8.08529 23.2403C7.52314 23.1163 7.01459 22.8832 6.52277 22.6576C5.95004 22.3949 5.40904 22.147 4.98896 22.1939C4.02903 22.3015 3.82721 22.5202 3.49265 22.8827C3.40046 22.9825 3.29584 23.0959 3.17054 23.2138C2.96338 23.4088 2.63736 23.3989 2.44263 23.1917C2.24766 22.9846 2.25755 22.6588 2.4647 22.4638C2.5638 22.3707 2.65117 22.2758 2.73578 22.1843C2.93673 21.9668 3.14434 21.7417 3.48093 21.5552C3.83316 21.36 4.27599 21.2377 4.87424 21.1707C5.57825 21.0917 6.27672 21.4119 6.95225 21.7216C7.39484 21.9246 7.85261 22.1346 8.30718 22.2348C8.61688 22.3031 9.00819 22.293 9.42249 22.2824C10.2021 22.2622 11.0862 22.2394 11.8693 22.7165C12.4666 23.0804 12.8193 23.73 13.1603 24.3581C13.401 24.8016 13.6502 25.2601 13.9774 25.6077C14.2124 25.8574 14.586 26.0712 14.9817 26.2977C15.6093 26.6571 16.3205 27.0642 16.77 27.7761C17.0438 28.2099 17.1484 28.7091 17.2215 29.325C17.2551 29.6076 17.0532 29.8637 16.7709 29.8972C16.75 29.8993 16.7295 29.9005 16.7093 29.9005L16.7093 29.9005Z" fill="black"/>
<path d="M7.28655 18.4313C6.85982 18.4313 6.44092 18.275 6.10778 17.9756C5.59484 17.5148 5.39459 16.8175 5.58518 16.1556C5.83027 15.3044 6.33681 14.3964 7.09091 13.4568C7.53051 12.9089 7.73629 12.2322 7.67007 11.5514C7.58201 10.6465 7.63972 9.25319 8.41475 7.75552C8.53845 7.51687 8.68605 7.27983 8.86631 7.03085C9.19739 6.57286 10.1564 4.85949 8.58374 2.04992C8.44487 1.80161 8.53338 1.488 8.7817 1.34891C9.03001 1.21004 9.34362 1.29856 9.48271 1.54687C10.272 2.95695 10.6006 4.3123 10.4594 5.57506C10.3433 6.61474 9.93428 7.31163 9.70066 7.63464C9.55052 7.84203 9.42913 8.03631 9.32934 8.229C8.66995 9.50318 8.62051 10.6848 8.69502 11.4518C8.78722 12.4018 8.50258 13.3426 7.89401 14.1013C7.06169 15.1387 6.71707 15.946 6.57475 16.4408C6.49313 16.7242 6.57567 17.0116 6.79593 17.2094C7.01159 17.4032 7.29968 17.454 7.56663 17.3457C7.57743 17.3414 7.58801 17.3368 7.59859 17.3322C7.70113 17.288 7.79171 17.2204 7.86092 17.1365C8.30029 16.6031 8.90543 16.2249 9.65976 16.0127C10.1683 15.8696 10.6652 15.6232 11.1365 15.2804C12.0364 14.6256 13.3934 14.7654 14.122 14.907C14.1797 14.9183 14.2729 14.9084 14.371 14.8983C14.4469 14.8902 14.5327 14.8813 14.6246 14.8792C15.5137 14.8578 16.209 14.652 16.6362 14.2839C17.0321 13.9425 17.1213 13.5347 17.1261 13.2527C17.1363 12.6736 16.8213 12.2852 16.653 12.2754C16.5911 12.2717 16.5265 12.2749 16.4603 12.2853C15.8159 12.3853 15.2997 12.2701 14.9261 11.9434C14.4331 11.5123 14.3715 10.8598 14.3787 10.5092C14.381 10.3855 14.3957 10.2627 14.4228 10.1448C14.6467 9.16528 14.3987 8.61925 13.9947 7.89799C13.9354 7.792 13.8687 7.65796 13.7912 7.503C13.6517 7.22296 13.4406 6.79993 13.3153 6.6599C13.0463 6.35986 12.8688 6.09086 12.7725 5.8377C12.6357 5.47765 12.6897 5.20403 12.7591 5.03781C13.001 4.45911 13.7087 4.3823 13.8515 4.37265L14.5573 4.30068C14.8849 4.26734 15.222 4.2747 15.5591 4.32252C18.056 4.67821 19.0858 2.26753 19.4125 1.21472C19.4969 0.942954 19.7854 0.79121 20.057 0.87559C20.3287 0.95997 20.4805 1.24851 20.3961 1.52004C20.2218 2.08173 19.8139 3.15313 19.0416 4.01577C18.6043 4.50434 18.104 4.86828 17.555 5.09754C16.9034 5.36953 16.183 5.45184 15.4138 5.34216C15.1592 5.30607 14.9061 5.30032 14.6615 5.32538L13.9453 5.39849C13.9336 5.39964 13.9303 5.4001 13.9195 5.40056C13.8568 5.40516 13.7761 5.42517 13.7262 5.44632C13.7485 5.51828 13.8243 5.68497 14.0819 5.97237C14.3003 6.21585 14.5194 6.65542 14.7128 7.04354C14.7813 7.1808 14.8459 7.31048 14.893 7.39486C15.257 8.0446 15.7557 8.9346 15.4264 10.3744C15.4154 10.4231 15.4092 10.4753 15.408 10.5291C15.4053 10.668 15.4186 11.0059 15.6039 11.168C15.7706 11.3138 16.0757 11.3025 16.3022 11.2673C16.4406 11.2459 16.579 11.239 16.7137 11.2471C17.1306 11.2717 17.526 11.5299 17.798 11.9552C18.0369 12.3291 18.164 12.7963 18.1558 13.2706C18.1436 13.9663 17.8428 14.6032 17.3085 15.0637C16.69 15.5969 15.7954 15.8811 14.6492 15.9087C14.5989 15.9098 14.5403 15.916 14.4782 15.9224C14.3248 15.9385 14.134 15.9585 13.9252 15.9181C13.5705 15.8491 12.3655 15.6597 11.7422 16.1133C11.1717 16.5283 10.565 16.8279 9.93844 17.0042C9.39031 17.1583 8.95897 17.4231 8.65573 17.7912C8.48283 18.0011 8.2582 18.1694 8.00599 18.2782C7.99058 18.2849 7.97495 18.2915 7.95862 18.2982C7.95816 18.2984 7.95747 18.2987 7.95701 18.2989C7.73905 18.3879 7.51166 18.4313 7.28655 18.4313L7.28655 18.4313Z" fill="black"/>
</svg>
