<svg width="205" height="211" viewBox="0 0 205 211" fill="none" xmlns="http://www.w3.org/2000/svg">
<path d="M35.9803 34.0839C36.5242 32.1808 37.2333 30.112 37.9062 28.0799C37.1071 27.298 36.3646 26.4599 35.3113 25.9332C34.9015 27.368 34.3959 28.898 33.8843 30.4351C34.5561 31.7325 34.5227 33.3553 35.9803 34.0839Z" fill="#231F20"/>
<path d="M88.5512 203.714L91.0732 203.976L91.0076 203.763L86.8928 202.655L85.7666 203.765C87.212 203.624 88.5512 203.714 88.5512 203.714Z" stroke="#231F20" stroke-width="3" stroke-miterlimit="10"/>
<path d="M46.4409 42.8505C45.996 42.405 44.2153 42.405 44.2153 42.405L39.7629 44.1858C39.7629 44.1858 39.318 41.0698 38.4277 39.7339C37.5373 40.6243 36.2015 41.0698 35.3111 41.9601C34.5431 40.5781 33.4052 40.0965 32.1517 39.9675V60.0588H35.3851C37.7147 57.812 42.8795 54.4252 42.8795 54.4252C42.8795 54.4252 48.6671 47.3023 46.4409 42.8505Z" fill="#231F20"/>
<path d="M37.5624 60.1416H47.1462C47.234 59.2012 47.4103 58.2702 47.6706 57.3782V57.213C44.7214 59.1495 41.0599 59.1912 37.5624 60.1416Z" fill="#231F20"/>
<path d="M98.6321 176.468C98.5832 179.046 98.4214 181.236 98.1494 183.048C100.514 180.963 104.015 177.943 104.015 177.943C104.015 177.943 100.978 175.941 98.6321 176.468Z" fill="#231F20"/>
<path d="M64.2832 190.518C67.3453 189.183 70.0247 187.401 72.7036 185.621C75.3324 183.874 77.5931 185.118 79.8465 183.064H66.2781C65.6079 185.542 64.8433 187.911 64.2832 190.518Z" fill="#231F20"/>
<path d="M15.9779 143.31H0.582535V201.431H34.4002V187.852H15.9779V143.31Z" fill="#231F20"/>
<path d="M54.6072 173.357C54.5911 172.701 54.5822 172.026 54.5822 171.329C54.5822 168.699 54.6906 166.39 54.9064 164.401C56.8495 164.167 59.7592 163.936 61.5789 164.351C61.8302 163.167 62.14 162.154 62.5081 161.316C63.6727 158.664 65.6686 157.337 68.4943 157.337C68.5121 157.337 81.6852 157.337 90.6622 157.337C91.3924 155.561 92.4007 154.076 93.3389 152.413C96.991 152.413 96.793 152.413 96.8008 152.413C99.632 152.438 101.612 153.75 102.742 156.348C103.773 158.72 104.336 162.522 104.435 167.743C107.644 166.163 114.028 170.449 114.028 170.449C114.028 170.449 116.835 168.77 118.067 166.008C117.733 157.314 116.096 150.79 113.153 146.445C109.838 141.555 104.377 139.104 96.7696 139.093H81.9827C84.2879 140.327 87.1236 140.635 89.6334 141.511C88.5556 142.555 86.9723 143.992 85.5948 145.223C85.8278 146.418 85.6576 147.612 85.6576 148.806C88.7196 146.581 91.7817 146.135 95.2264 145.245C94.336 147.316 93.1882 148.937 92.2322 150.719C89.6667 151.344 87.2821 151.997 84.8974 153.731C84.8974 152.536 85.0675 151.342 84.8351 150.148C83.2774 151.54 81.9838 152.668 81.9838 152.668L80.0702 148.216L68.9704 151.778L68.2051 148.661L55.1984 162.277C55.2607 161.91 55.328 161.555 55.3997 161.217C52.4711 160.55 46.7168 161.555 46.7168 161.555L62.0265 145.528C62.0265 145.528 61.6434 149.535 62.7918 148.644C66.6196 145.083 69.2985 143.302 73.8916 145.083C75.4226 145.528 77.7189 147.754 75.8052 149.535C78.102 147.754 80.3983 145.528 82.6945 143.302C80.1847 142.426 77.349 142.118 75.0439 140.884H62.3157C54.6812 140.884 49.2033 143.336 45.8826 148.236C42.5603 153.138 40.9003 160.835 40.9003 171.329C40.9003 177.753 41.5432 183.104 42.8256 187.386C43.4462 186.733 44.0357 186.043 44.6063 185.331C45.6541 183.85 50.969 176.444 54.6072 173.357Z" fill="#231F20"/>
<path d="M18.5728 106.85C19.1484 107.139 20.0716 107.513 21.3401 107.974C23.2999 108.725 24.7848 109.416 25.7947 110.05C26.803 110.685 27.3085 111.55 27.3085 112.645C27.3085 115.759 25.0595 117.315 20.5621 117.315C16.4106 117.315 10.529 116.796 2.91777 115.759L1.36116 127.521L4.47493 128.213C10.817 129.885 16.4668 130.721 21.4269 130.721C25.4054 130.721 28.9947 129.986 32.1947 128.516C35.3952 127.045 37.9317 124.883 39.8059 122.029C41.6789 119.175 42.6165 115.73 42.6165 111.693C42.6165 108.523 42.1544 105.898 41.2329 103.823C40.3097 101.747 38.8109 99.9739 36.7355 98.5035C34.66 97.0331 31.7192 95.5193 27.9136 93.9632C27.1634 93.6173 25.52 92.9833 22.9835 92.0602C20.5037 91.1387 18.6879 90.374 17.5345 89.7684C16.3806 89.1627 15.805 88.4275 15.805 87.5627C15.805 84.9678 18.1685 83.6704 22.8973 83.6704C26.9326 83.6704 32.6985 84.1031 40.1951 84.9678L41.4058 73.0322C35.1783 71.8799 30.8978 71.1297 28.562 70.7838C26.2268 70.4378 23.7621 70.2649 21.1677 70.2649C14.8239 70.2649 9.80766 71.8215 6.11829 74.9353C2.42726 78.049 0.582581 82.6332 0.582581 88.6872C0.582581 92.955 1.95177 96.5009 4.69127 99.3254C7.42909 102.151 12.0561 104.659 18.5728 106.85Z" fill="#231F20"/>
<path d="M47.7197 57.2957C47.4594 58.1878 47.2825 59.1182 47.1952 60.0591H47.7197V57.2957Z" fill="#231F20"/>
<path d="M120.551 106.85C121.126 107.139 122.049 107.513 123.319 107.974C125.278 108.725 126.763 109.416 127.772 110.05C128.781 110.685 129.286 111.55 129.286 112.645C129.286 115.759 127.038 117.315 122.54 117.315C118.388 117.315 112.507 116.796 104.896 115.759L103.339 127.521L106.453 128.213C112.795 129.885 118.445 130.721 123.405 130.721C127.383 130.721 130.972 129.986 134.173 128.516C137.373 127.045 139.91 124.883 141.784 122.029C143.657 119.175 144.595 115.73 144.595 111.693C144.595 108.523 144.133 105.898 143.211 103.823C142.288 101.747 140.79 99.9739 138.714 98.5035C136.638 97.0331 133.697 95.5193 129.892 93.9632C129.142 93.6173 127.498 92.9833 124.962 92.0602C122.482 91.1387 120.666 90.374 119.513 89.7684C118.359 89.1627 117.783 88.4275 117.783 87.5627C117.783 84.9678 120.146 83.6704 124.875 83.6704C128.91 83.6704 134.677 84.1031 142.173 84.9678L143.384 73.0322C137.156 71.8799 132.875 71.1297 130.54 70.7838C128.206 70.4378 125.74 70.2649 123.145 70.2649C116.802 70.2649 111.785 71.8215 108.096 74.9353C104.405 78.049 102.561 82.6332 102.561 88.6872C102.561 92.955 103.929 96.5009 106.669 99.3254C109.407 102.151 114.034 104.659 120.551 106.85Z" fill="#231F20"/>
<path d="M98.3158 46.6532H74.6174V37.5716H93.1265V24.4252H74.6174V15.3442H98.3158V1.93812H59.2226V60.0587H98.3158V46.6532Z" fill="#231F20"/>
<path d="M122.619 14.9981H130.489C132.276 14.9981 133.733 15.6899 134.857 17.0736C135.981 18.4578 136.543 20.1306 136.543 22.0899C136.543 24.1092 136.038 25.8243 135.03 27.2363C134.021 28.6494 132.594 29.3552 130.749 29.3552H122.619V14.9981ZM122.619 42.5015H130.489L134.727 60.0591H151.593L145.279 38.7827C150.006 34.2852 152.371 28.7217 152.371 22.0899C152.371 15.4603 150.54 10.444 146.879 7.04045C143.217 3.63972 137.755 1.93796 130.489 1.93796H107.223V60.0591H122.619V42.5015Z" fill="#231F20"/>
<path d="M51.1463 71.3894V84.9684H65.0712V129.51H80.5472C80.2875 127.925 74.0427 127.882 74.0427 127.882C74.0427 127.882 74.9859 126.135 75.7511 125.027C75.77 125.088 75.7928 125.149 75.824 125.211C76.2689 123.43 79.3854 120.759 79.3854 120.759L77.6047 120.314L78.94 118.088L77.2738 114.756C77.786 114.626 78.2982 114.445 78.8098 114.19C78.5813 116.477 79.1758 117.354 79.9883 118.149C81.2952 117.134 82.6265 116.215 84.0708 115.746V107.343C82.0649 109.865 79.124 111.269 76.384 112.976L75.3785 110.965C75.3785 110.965 71.8171 111.856 70.0363 111.856C73.3748 108.934 80.6389 104.119 80.6389 104.119V103.283L70.9267 98.9445L74.5465 95.8819C75.9719 96.7055 80.5894 99.2776 83.8206 99.9639V81.6483H97.5725V68.0698H57.6046L55.8556 72.9204L68.7661 76.9273L70.9918 74.2557C70.9918 74.2557 68.7661 76.9273 69.211 79.1529C72.7725 77.8177 80.7863 76.4819 80.7863 76.4819L76.3345 88.502H80.3409L79.896 90.7277L77.1086 93.0868C77.2727 92.5896 77.3795 92.0418 77.1592 91.8216C75.824 91.3761 73.1523 91.8216 73.1523 91.8216L77.6047 79.8014L66.0294 82.4725C66.0294 82.4725 67.8101 79.3565 67.8101 77.5758C66.4743 78.0207 65.584 80.2469 65.584 80.2469L52.674 76.2399C52.674 76.2399 53.5232 72.7296 54.423 71.3894H51.1463Z" fill="#231F20"/>
<path d="M15.9779 37.4852H24.9516C25.3387 35.5415 28.1855 33.2825 29.5235 31.2755C30.0118 31.7632 30.2621 32.3705 30.4701 32.9878C29.627 33.9694 28.9168 34.9398 28.7372 35.8419H35.9368V38.3239C37.1903 38.4534 38.3287 38.9345 39.0967 40.3165C39.9871 39.4261 42.2127 38.0908 42.2127 38.0908L43.5486 42.5427L48.0004 40.7619L50.2266 41.2068L46.6651 52.7821C46.6651 52.7821 41.4998 56.1684 39.1707 58.4157H41.3969C44.8938 57.4647 48.556 57.4236 51.5051 55.4877V0.2946H35.9368V8.15494C37.1419 8.63265 39.5422 9.59809 39.5422 9.59809L38.2064 13.605L41.3224 11.8243L47.11 16.2761C47.11 16.2761 47.11 25.6252 43.1031 26.5156C43.5486 26.961 43.5486 27.8514 43.5486 27.8514C43.5486 27.8514 42.7138 27.0161 41.6661 26.1246C43.3239 23.1104 43.3244 17.9195 43.3244 17.9195L37.5374 13.4676L34.4208 15.2484C34.4208 15.2484 36.647 11.6869 35.7561 11.242C34.6344 10.6809 33.3569 10.276 32.1518 9.7983V24.1659H15.9779V1.93796H0.582535V60.0591H15.9779V37.4852Z" fill="#231F20"/>
<path d="M82.5532 129.222C82.5227 129.161 82.4993 129.099 82.481 129.037C81.7152 130.147 80.7725 131.099 80.7725 131.893C81.5455 134.6 87.0167 131.936 87.277 133.521H87.3688V116.532C85.9251 117.001 84.5937 117.92 83.2862 118.935C84.0554 119.688 85.6698 122.099 85.6698 122.099L84.334 124.325L86.1147 124.77C86.1147 124.77 82.9982 127.441 82.5532 129.222Z" fill="#231F20"/>
<path d="M188.177 201.431H204.178V184.652H188.177V201.431Z" fill="#231F20"/>
<path d="M133.307 200.443L137.758 183.526C137.758 183.526 129.726 181.932 125.228 183.484V203.206H135.36C134.483 202.387 133.307 200.443 133.307 200.443Z" fill="#231F20"/>
<path d="M114.208 175.509C114.208 175.509 107.824 171.224 104.615 172.804C104.626 173.359 104.633 173.924 104.633 174.512C104.633 175.115 104.625 175.694 104.615 176.26C106.961 175.734 109.998 177.735 109.998 177.735C109.998 177.735 106.867 180.435 104.528 182.492C103.002 183.102 101.439 183.896 100.057 184.626C100.116 185.041 100.167 185.445 100.202 185.826C100.429 188.273 100.18 190.244 99.4568 191.74C98.7399 193.22 97.487 194.339 95.6968 195.097C95.6901 195.1 94.3037 196.836 89.1584 198.979L90.2945 199.301L86.8927 202.655L91.0075 203.763L91.0731 203.977L94.0673 204.287L94.7364 205.393L93.9166 203.757L95.4382 207.38C95.4382 207.38 102.458 203.377 105.089 204.66C109.108 201.892 111.704 198.376 112.861 194.104C113.162 192.99 113.385 191.818 113.531 190.589C113.242 188.542 112.782 186.574 112.153 184.736C114.028 185.484 115.356 186.194 115.356 186.194C115.356 186.194 115.471 191.32 115.056 193.954C117.228 189.119 118.315 182.639 118.315 174.512C118.315 173.327 118.29 172.183 118.247 171.07C117.015 173.83 114.208 175.509 114.208 175.509Z" fill="#231F20"/>
<path d="M91.0731 203.976L92.1686 207.535L94.7363 205.393L94.0673 204.287L91.0731 203.976Z" fill="#231F20"/>
<path d="M91.0731 203.976L92.1686 207.535L94.7363 205.393L94.0673 204.287L91.0731 203.976Z" stroke="#231F20" stroke-width="3" stroke-miterlimit="10"/>
<path d="M168.76 108.753L172.738 84.0166H182.06L187.002 108.753H168.76ZM195.504 71.3891H160.63L149.472 129.51H165.041L166.165 122.073H188.058L188.868 129.51H204.437L195.504 71.3891Z" fill="#231F20"/>
<path d="M162.223 186.295L153.661 143.31H128.405V181.709C132.903 180.156 139.823 181.751 139.823 181.751L135.372 198.668C135.372 198.668 136.548 200.611 137.425 201.431H143.801V157.062L153.142 201.431H177.791V143.31H162.223V186.295Z" fill="#231F20"/>
<path d="M91.0731 203.976L88.551 203.714C88.551 203.714 87.2119 203.624 85.7665 203.765L86.8927 202.655L84.8016 202.092C84.8016 202.092 84.4618 201.76 84.2416 201.407L85.2821 203.821C84.4362 203.935 83.6004 204.138 83.0192 204.496L83.5592 200.538C83.5592 200.538 81.075 196.023 78.8071 195.604C78.4578 195.54 78.5335 194.788 78.5946 194.327C78.5513 194.32 78.509 194.312 78.4662 194.304C75.9636 195.922 73.8987 194.281 71.0669 195.528C68.1806 196.797 65.2942 198.067 62.0904 198.828C62.9952 196.356 64.0696 194.155 65.0657 191.829C64.237 191.676 63.7615 191.588 63.7588 191.588C62.4079 191.338 61.2934 190.866 60.4136 190.171C60.0777 190.195 59.7385 190.213 59.3904 190.215C58.7931 190.435 59.1657 189.626 59.2841 188.977C59.1362 188.768 58.9994 188.55 58.8759 188.317C58.5139 188.251 58.1185 188.178 58.1185 188.178L46.4003 186.013C46.4003 186.013 46.4793 185.931 46.6194 185.786C45.9604 186.385 45.2852 186.959 44.584 187.49C45.0083 190.237 45.7251 192.63 46.7379 194.662C49.3973 200.001 54.4725 203.36 61.9636 204.743C61.9803 204.746 91.8683 210.266 91.885 210.268C94.0701 210.668 93.3165 210.824 95.1957 210.752L94.7363 205.393L92.1687 207.535L91.0731 203.976Z" fill="#231F20"/>
<path d="M61.2685 180.6C61.2685 180.6 59.9171 174.692 59.8065 170.26C55.7545 173.698 49.6187 182.499 49.6187 182.499H61.4843H62.2512L61.2685 180.6Z" fill="#231F20"/>
<path d="M61.2685 180.6C61.2685 180.6 59.9171 174.692 59.8065 170.26C55.7545 173.698 49.6187 182.499 49.6187 182.499H61.4843H62.2512L61.2685 180.6Z" stroke="#231F20" stroke-width="3" stroke-miterlimit="10"/>
<path d="M188.843 178.511H203.597L204.437 143.31H188.09L188.843 178.511Z" fill="#231F20"/>
<path d="M82.7534 199.15L83.1271 198.821L82.7534 197.955V199.15Z" fill="#231F20"/>
<path d="M82.7534 199.15L83.1271 198.821L82.7534 197.955V199.15Z" stroke="#231F20" stroke-width="3" stroke-miterlimit="10"/>
<path d="M84.8013 202.092L86.8924 202.655L90.2948 199.301L89.1581 198.979C87.5369 199.654 85.8196 200.369 84.1028 201.085L84.2419 201.407C84.4615 201.759 84.8013 202.092 84.8013 202.092Z" fill="#231F20"/>
<path d="M84.8013 202.092L86.8924 202.655L90.2948 199.301L89.1581 198.979C87.5369 199.654 85.8196 200.369 84.1028 201.085L84.2419 201.407C84.4615 201.759 84.8013 202.092 84.8013 202.092Z" stroke="#231F20" stroke-width="3" stroke-miterlimit="10"/>
<path d="M84.0872 201.091C84.1189 201.193 84.1756 201.3 84.2418 201.407L84.1028 201.085C84.0978 201.087 84.0922 201.089 84.0872 201.091Z" fill="#231F20"/>
<path d="M84.0872 201.091C84.1189 201.193 84.1756 201.3 84.2418 201.407L84.1028 201.085C84.0978 201.087 84.0922 201.089 84.0872 201.091Z" stroke="#231F20" stroke-width="3" stroke-miterlimit="10"/>
<path d="M82.3667 197.057L82.7532 197.954V197.166L82.3667 197.057Z" fill="#231F20"/>
<path d="M82.3667 197.057L82.7532 197.954V197.166L82.3667 197.057Z" stroke="#231F20" stroke-width="3" stroke-miterlimit="10"/>
<path d="M84.459 197.649L83.127 198.821L84.1031 201.085C85.8193 200.37 87.5372 199.654 89.1583 198.98L84.459 197.649Z" fill="#231F20"/>
<path d="M84.459 197.649L83.127 198.821L84.1031 201.085C85.8193 200.37 87.5372 199.654 89.1583 198.98L84.459 197.649Z" stroke="#231F20" stroke-width="3" stroke-miterlimit="10"/>
<path d="M82.7534 197.166V197.954L83.1271 198.821L84.459 197.649L82.7534 197.166Z" fill="#231F20"/>
<path d="M82.7534 197.166V197.954L83.1271 198.821L84.459 197.649L82.7534 197.166Z" stroke="#231F20" stroke-width="3" stroke-miterlimit="10"/>
<path d="M86.4896 195.862L92.2467 194.834L90.7307 190.518H86.4896L79.0175 194.502L82.7535 196.332V197.167L84.4592 197.649L86.4896 195.862Z" fill="#231F20"/>
<path d="M86.4896 195.862L92.2467 194.834L90.7307 190.518H86.4896L79.0175 194.502L82.7535 196.332V197.167L84.4592 197.649L86.4896 195.862Z" stroke="#231F20" stroke-width="3" stroke-miterlimit="10"/>
<path fill-rule="evenodd" clip-rule="evenodd" d="M184.112 46.9994C185.784 46.9994 186.98 46.6679 187.701 46.0045C188.421 45.3421 188.782 44.1448 188.782 42.4152C188.782 40.8019 188.523 39.5756 188.004 38.7392C187.485 37.9044 186.274 37.4851 184.371 37.4851H176.5V46.9994H184.112ZM198.123 30.2204C200.256 31.2014 201.842 32.6852 202.88 34.6744C203.918 36.6637 204.437 39.2447 204.437 42.4152C204.437 48.2395 202.751 52.6358 199.377 55.6049C196.004 58.5752 191.174 60.059 184.89 60.059H161.106V1.93785H185.063C191.464 1.93785 196.177 3.19192 199.204 5.70007C202.231 8.20877 203.745 12.3464 203.745 18.1118C203.745 20.8223 203.355 23.1147 202.577 24.9872C201.799 26.8619 200.313 28.6065 198.123 30.2204ZM188.176 19.9277C188.176 21.4848 187.816 22.6522 187.096 23.4307C186.373 24.2093 185.351 24.5986 184.025 24.5986H176.5V14.9981H184.285C185.495 14.9981 186.447 15.4453 187.139 16.3384C187.831 17.2332 188.176 18.4289 188.176 19.9277Z" fill="#231F20"/>
<path d="M79.0174 194.502L75.1467 199.367L77.0821 203.976L83.1272 205.221L89.521 207.379C89.521 207.379 94.2737 206.928 94.2737 206.655C94.2737 206.382 94.7364 201.673 94.7364 201.673L87.7609 200.24L84.2417 196.009" fill="#231F20"/>
<path d="M79.0174 194.502L75.1467 199.367L77.0821 203.976L83.1272 205.221L89.521 207.379C89.521 207.379 94.2737 206.928 94.2737 206.655C94.2737 206.382 94.7364 201.673 94.7364 201.673L87.7609 200.24L84.2417 196.009" stroke="#231F20" stroke-width="3" stroke-miterlimit="10"/>
<path d="M78.4659 194.304L86.4898 190.518L78.4659 198.278V194.304Z" fill="#231F20"/>
<path d="M78.4659 194.304L86.4898 190.518L78.4659 198.278V194.304Z" stroke="#231F20" stroke-width="3" stroke-miterlimit="10"/>
</svg>
