<svg width="20" height="23" viewBox="0 0 20 23" fill="none" xmlns="http://www.w3.org/2000/svg">
<path fill-rule="evenodd" clip-rule="evenodd" d="M20 11.4285C20 12.2137 19.5771 12.9004 18.9467 13.2737L3.25762 22.5445C3.25218 22.5482 3.24638 22.5507 3.24167 22.5543L3.23261 22.5594C2.91374 22.7485 2.54052 22.8572 2.14302 22.8572C0.959914 22.8572 0 21.8981 0 20.7142V2.14302C0 0.959915 0.959914 0 2.14302 0C2.54053 0 2.91375 0.109434 3.23261 0.298588V0.297863L3.24167 0.302573C3.24638 0.306922 3.25218 0.309457 3.25762 0.31308L18.9467 9.58329C19.5775 9.95723 20 10.6436 20 11.4284" fill="black"/>
</svg>
