<svg width="25" height="25" viewBox="0 0 25 25" fill="none" xmlns="http://www.w3.org/2000/svg">
<path d="M16.2368 7.6579H8.76316C8.15795 7.6579 7.6579 8.15794 7.6579 8.76316V16.2368C7.6579 16.8421 8.15795 17.3421 8.76316 17.3421H16.2368C16.8421 17.3421 17.3421 16.8421 17.3421 16.2368V8.76316C17.3421 8.15794 16.8421 7.6579 16.2368 7.6579V7.6579Z" fill="black"/>
<path d="M12.5 0C5.60526 0 0 5.60526 0 12.5C0 19.3947 5.60526 25 12.5 25C19.3947 25 25 19.3947 25 12.5C25 5.60526 19.3947 0 12.5 0ZM12.5 23.0526C6.68421 23.0526 1.94737 18.3158 1.94737 12.5C1.94737 6.68421 6.68421 1.94737 12.5 1.94737C18.3158 1.94737 23.0526 6.68421 23.0526 12.5C23.0526 18.3158 18.3158 23.0526 12.5 23.0526V23.0526Z" fill="black"/>
</svg>
