<svg width="852" height="565" viewBox="0 0 852 565" fill="none" xmlns="http://www.w3.org/2000/svg">
<path fill-rule="evenodd" clip-rule="evenodd" d="M0 0H852V565H0V0ZM388.14 371.264L389.052 371.711C388.4 371.811 387.759 371.781 387.103 371.751C385.983 371.699 384.819 371.645 383.484 372.233L383.477 372.236L383.477 372.236C380.593 373.505 377.709 374.773 374.508 375.533C375.127 373.842 375.825 372.278 376.524 370.714L376.524 370.714C376.846 369.992 377.168 369.269 377.483 368.535L376.176 368.293C374.825 368.044 373.711 367.571 372.831 366.876C372.495 366.9 372.156 366.918 371.808 366.921C371.349 367.089 371.462 366.652 371.593 366.146L371.593 366.146C371.633 365.993 371.674 365.833 371.702 365.683C371.554 365.474 371.417 365.255 371.293 365.023L370.536 364.883L358.818 362.719C358.818 362.719 358.897 362.636 359.037 362.492C358.378 363.091 357.703 363.664 357.001 364.196C357.426 366.942 358.143 369.335 359.155 371.368C361.815 376.706 366.89 380.065 374.381 381.448C374.398 381.451 404.286 386.971 404.302 386.973C405.129 387.125 405.535 387.241 405.822 387.323C406.294 387.459 406.445 387.502 407.613 387.457L407.378 384.718C407.464 384.67 407.597 384.586 407.73 384.455C407.817 384.37 407.961 384.207 408.065 383.969C409.25 383.319 415.146 380.214 417.507 381.365C421.525 378.597 424.121 375.081 425.278 370.809C425.58 369.696 425.803 368.524 425.949 367.295C425.66 365.247 425.199 363.28 424.57 361.441C426.446 362.19 427.773 362.899 427.773 362.899C427.773 362.899 427.889 368.025 427.474 370.659C429.646 365.824 430.732 359.344 430.732 351.217C430.732 350.033 430.708 348.889 430.665 347.775C429.432 350.536 426.625 352.215 426.625 352.215C426.625 352.215 420.241 347.929 417.032 349.509C417.043 350.064 417.05 350.63 417.05 351.217C417.05 351.82 417.043 352.399 417.032 352.966C419.378 352.439 422.415 354.44 422.415 354.44C422.415 354.44 419.284 357.14 416.945 359.198C415.419 359.807 413.857 360.602 412.475 361.331C412.533 361.746 412.584 362.15 412.619 362.531C412.847 364.979 412.598 366.949 411.874 368.445C411.157 369.926 409.904 371.044 408.114 371.803C408.114 371.803 408.112 371.805 408.108 371.809C408.023 371.908 406.976 373.116 403.699 374.726L403.12 374.563L401.984 374.241L401.481 374.099L401.481 374.099L400.468 373.812L404.928 373.016L406.664 372.706L406.079 371.042L404.563 366.726L404.211 365.723H403.148H402.615L406.469 361.996L398.57 365.723H398.532L398.24 365.879L393.9 367.927L393.671 367.395V368.035L390.243 369.653L389.383 370.058V370.602L388.14 371.264ZM358.858 219.556C358.413 219.11 356.633 219.11 356.633 219.11L352.18 220.891C352.18 220.891 351.735 217.775 350.845 216.439C350.4 216.884 349.843 217.218 349.287 217.552C348.73 217.886 348.174 218.22 347.729 218.665C346.961 217.283 345.823 216.802 344.569 216.673V236.764H347.803C350.132 234.517 355.297 231.131 355.297 231.131C355.297 231.131 361.085 224.008 358.858 219.556ZM359.564 236.847H349.98C351.087 236.546 352.211 236.336 353.323 236.129C355.724 235.68 358.073 235.242 360.088 233.918V234.084C359.828 234.976 359.651 235.907 359.564 236.847ZM411.05 353.173C411.001 355.751 410.839 357.941 410.567 359.753C412.931 357.668 416.432 354.648 416.432 354.648C416.432 354.648 413.396 352.647 411.05 353.173ZM385.119 362.327L385.119 362.327C382.441 364.108 379.762 365.888 376.701 367.223C377.084 365.44 377.563 363.768 378.042 362.096C378.263 361.324 378.484 360.552 378.696 359.769H392.264C391.072 360.856 389.879 361.02 388.63 361.191C387.517 361.344 386.36 361.503 385.121 362.326L385.119 362.327ZM328.395 320.015H313V378.136H346.818V364.557H328.395V320.015ZM367 348.034C367 348.732 367.009 349.407 367.025 350.062C363.386 353.149 358.072 360.556 357.024 362.036C356.453 362.748 355.864 363.438 355.243 364.091C353.961 359.809 353.318 354.459 353.318 348.034C353.318 337.54 354.978 329.843 358.3 324.942C361.621 320.041 367.099 317.59 374.733 317.59H387.461C388.89 318.354 390.523 318.764 392.155 319.173L392.155 319.173C393.157 319.424 394.158 319.675 395.112 320.008L395.103 320.016C392.81 322.239 390.517 324.462 388.223 326.24C390.136 324.459 387.84 322.233 386.309 321.788C381.716 320.008 379.037 321.788 375.209 325.349C374.061 326.24 374.444 322.233 374.444 322.233L359.134 338.26C359.134 338.26 364.889 337.255 367.817 337.922C367.745 338.261 367.678 338.615 367.616 338.982L380.623 325.366L381.388 328.483L392.488 324.922L394.401 329.373C394.401 329.373 395.695 328.245 397.253 326.853C397.416 327.693 397.38 328.532 397.345 329.371V329.371V329.371V329.372V329.372V329.372V329.372V329.372V329.372V329.372V329.372V329.372V329.372V329.372V329.372V329.372V329.372V329.372V329.372V329.372V329.372V329.372V329.372V329.372V329.372V329.372V329.372V329.372V329.372V329.372V329.372V329.372V329.372V329.372V329.372V329.372V329.372V329.372V329.372C397.33 329.727 397.315 330.081 397.315 330.436C399.7 328.703 402.084 328.049 404.65 327.425C404.988 326.794 405.35 326.184 405.716 325.567L405.716 325.567L405.716 325.567L405.716 325.567C406.385 324.44 407.068 323.289 407.644 321.95C407.075 322.097 406.516 322.232 405.965 322.365C403.187 323.036 400.631 323.654 398.075 325.512C398.075 325.157 398.09 324.803 398.105 324.448V324.448V324.448V324.448V324.448V324.448V324.448V324.448V324.448V324.448V324.448V324.448V324.448V324.448V324.448V324.448V324.448V324.448V324.448V324.448V324.448V324.448V324.448V324.448V324.448V324.448V324.448V324.448V324.448V324.448V324.448V324.448V324.448V324.448V324.448V324.448V324.448V324.448V324.448V324.448C398.141 323.608 398.176 322.768 398.012 321.928C399.39 320.698 400.973 319.261 402.051 318.216C401.096 317.883 400.095 317.632 399.093 317.381L399.093 317.381L399.093 317.381C397.461 316.972 395.829 316.563 394.4 315.799H409.187C416.794 315.809 422.256 318.261 425.57 323.15C428.513 327.495 430.15 334.02 430.485 342.714C429.253 345.475 426.445 347.154 426.445 347.154C426.445 347.154 420.062 342.868 416.853 344.448C416.754 339.227 416.19 335.426 415.16 333.053C414.029 330.455 412.049 329.143 409.218 329.119C409.21 329.119 409.408 329.119 405.756 329.118C405.493 329.585 405.224 330.038 404.957 330.487C404.274 331.638 403.605 332.765 403.08 334.043C394.103 334.042 380.93 334.042 380.912 334.042C378.086 334.042 376.09 335.37 374.926 338.021C374.557 338.859 374.248 339.872 373.996 341.056C372.177 340.641 369.267 340.872 367.324 341.106C367.108 343.096 367 345.404 367 348.034ZM330.99 283.555C331.566 283.844 332.489 284.219 333.758 284.68C335.717 285.43 337.202 286.122 338.212 286.755C339.22 287.39 339.726 288.256 339.726 289.35C339.726 292.464 337.477 294.02 332.98 294.02C328.828 294.02 322.946 293.502 315.335 292.464L313.779 304.226L316.892 304.918C323.235 306.59 328.884 307.427 333.844 307.427C337.823 307.427 341.412 306.691 344.612 305.221C347.813 303.751 350.349 301.588 352.223 298.734C354.096 295.88 355.034 292.435 355.034 288.399C355.034 285.228 354.572 282.604 353.65 280.528C352.727 278.453 351.228 276.679 349.153 275.209C347.077 273.738 344.137 272.225 340.331 270.669C339.581 270.323 337.937 269.689 335.401 268.766C332.921 267.844 331.105 267.079 329.952 266.474C328.798 265.868 328.222 265.133 328.222 264.268C328.222 261.673 330.586 260.376 335.315 260.376C339.35 260.376 345.116 260.808 352.613 261.673L353.823 249.738C347.596 248.585 343.315 247.835 340.979 247.489C338.644 247.143 336.18 246.97 333.585 246.97C327.241 246.97 322.225 248.527 318.536 251.641C314.845 254.754 313 259.339 313 265.393C313 269.66 314.369 273.206 317.109 276.031C319.847 278.856 324.474 281.365 330.99 283.555ZM359.613 236.764C359.7 235.824 359.877 234.893 360.137 234.001V236.764H359.613ZM432.968 283.555C433.543 283.844 434.467 284.219 435.736 284.68C437.696 285.43 439.18 286.122 440.19 286.755C441.199 287.39 441.704 288.256 441.704 289.35C441.704 292.464 439.455 294.02 434.957 294.02C430.806 294.02 424.925 293.502 417.313 292.464L415.757 304.226L418.87 304.918C425.213 306.59 430.863 307.427 435.822 307.427C439.8 307.427 443.39 306.691 446.59 305.221C449.79 303.751 452.327 301.588 454.201 298.734C456.075 295.88 457.012 292.435 457.012 288.399C457.012 285.228 456.55 282.604 455.628 280.528C454.706 278.453 453.207 276.679 451.131 275.209C449.056 273.738 446.115 272.225 442.309 270.669C441.559 270.323 439.916 269.689 437.38 268.766C434.9 267.844 433.083 267.079 431.93 266.474C430.776 265.868 430.2 265.133 430.2 264.268C430.2 261.673 432.564 260.376 437.292 260.376C441.328 260.376 447.094 260.808 454.591 261.673L455.801 249.738C449.574 248.585 445.293 247.835 442.958 247.489C440.623 247.143 438.158 246.97 435.563 246.97C429.22 246.97 424.203 248.527 420.513 251.641C416.823 254.754 414.978 259.339 414.978 265.393C414.978 269.66 416.347 273.206 419.086 276.031C421.825 278.856 426.452 281.365 432.968 283.555ZM387.035 223.359H410.733V236.764H371.64V178.643H410.733V192.05H387.035V201.131H405.544V214.277H387.035V223.359ZM435.036 191.703H442.907C444.693 191.703 446.15 192.395 447.275 193.779C448.399 195.163 448.961 196.836 448.961 198.795C448.961 200.815 448.456 202.53 447.447 203.942C446.438 205.355 445.011 206.061 443.167 206.061H435.036V191.703ZM435.036 219.207H442.907L447.145 236.764H464.01L457.697 215.488C462.424 210.991 464.789 205.427 464.789 198.795C464.789 192.166 462.958 187.149 459.297 183.746C455.634 180.345 450.172 178.643 442.907 178.643H419.641V236.764H435.036V219.207ZM363.564 261.674V248.095H366.84C365.941 249.435 365.091 252.945 365.091 252.945L378.001 256.952C378.001 256.952 378.892 254.726 380.228 254.281C380.228 256.062 378.447 259.178 378.447 259.178L390.022 256.507L385.57 268.527C385.57 268.527 388.241 268.081 389.577 268.527C389.797 268.747 389.69 269.295 389.526 269.792L392.313 267.433L392.758 265.207H388.752L393.204 253.187C393.204 253.187 385.19 254.523 381.628 255.858C381.184 253.633 383.409 250.961 383.409 250.961L381.184 253.633L368.273 249.626L370.022 244.775H409.99V258.354H396.238V276.669C393.007 275.983 388.389 273.411 386.964 272.587L383.344 275.65L393.056 279.989V280.824C393.056 280.824 385.792 285.64 382.454 288.561C384.235 288.561 387.796 287.671 387.796 287.671L388.801 289.682C389.354 289.337 389.915 289.005 390.474 288.674C392.689 287.363 394.887 286.062 396.488 284.049V292.451C395.044 292.92 393.713 293.839 392.406 294.855C391.593 294.059 390.999 293.182 391.227 290.895C390.716 291.151 390.203 291.332 389.691 291.461L391.357 294.793L390.022 297.02L391.803 297.465C391.803 297.465 388.686 300.136 388.241 301.916C388.21 301.855 388.187 301.793 388.169 301.732C387.403 302.841 386.46 304.587 386.46 304.587C386.46 304.587 392.705 304.63 392.965 306.216H377.489V261.674H363.564ZM328.395 214.191H337.369C337.613 212.967 338.83 211.619 340.033 210.288C340.742 209.504 341.445 208.725 341.941 207.981C342.429 208.469 342.68 209.076 342.888 209.693C342.044 210.675 341.334 211.645 341.155 212.547H348.354V215.029C349.608 215.159 350.746 215.64 351.514 217.022C352.405 216.131 354.63 214.796 354.63 214.796L355.966 219.248L360.418 217.467L362.644 217.912L359.083 229.487C359.083 229.487 353.917 232.874 351.588 235.121H353.814C354.922 234.82 356.047 234.61 357.161 234.402C359.561 233.954 361.908 233.515 363.923 232.193V177H348.354V184.86C349.559 185.338 351.96 186.303 351.96 186.303L350.624 190.31L353.74 188.53L359.527 192.981C359.527 192.981 359.527 202.331 355.521 203.221C355.966 203.666 355.966 204.557 355.966 204.557C355.966 204.557 355.131 203.721 354.084 202.83C355.741 199.816 355.742 194.625 355.742 194.625L349.955 190.173L346.838 191.954C346.838 191.954 349.064 188.392 348.174 187.947C347.408 187.564 346.57 187.254 345.732 186.944C345.342 186.8 344.952 186.655 344.569 186.504V200.871H328.395V178.643H313V236.764H328.395V214.191ZM394.898 305.743C394.917 305.804 394.94 305.866 394.971 305.927C395.416 304.147 398.532 301.475 398.532 301.475L396.751 301.03L398.087 298.804C398.087 298.804 396.473 296.393 395.704 295.641C397.011 294.626 398.343 293.706 399.786 293.237V310.227H399.694C399.582 309.542 398.497 309.65 397.238 309.775C395.583 309.941 393.629 310.136 393.19 308.598C393.19 308.015 393.699 307.346 394.273 306.592C394.48 306.32 394.695 306.037 394.898 305.743ZM500.595 378.136H516.595V361.357H500.595V378.136ZM450.176 360.231L445.724 377.149C445.724 377.149 446.901 379.092 447.777 379.912H437.646V360.19C442.144 358.637 450.176 360.231 450.176 360.231ZM485.155 260.722L481.177 285.458H499.419L494.477 260.722H485.155ZM473.047 248.094H507.922L516.854 306.216H501.286L500.476 298.778H478.582L477.459 306.216H461.89L473.047 248.094ZM474.641 363.001L466.079 320.015H440.822V358.414C445.32 356.861 452.241 358.456 452.241 358.456L447.789 375.373C447.789 375.373 448.966 377.317 449.842 378.136H456.218V333.767L465.559 378.136H490.208V320.015H474.641V363.001ZM362.036 359.204C360.806 358.346 360.806 358.346 360.806 358.346L360.806 358.346L360.807 358.344L360.811 358.339L360.825 358.319L360.879 358.242C360.926 358.175 360.996 358.077 361.085 357.951C361.263 357.7 361.522 357.338 361.845 356.894C362.49 356.006 363.393 354.785 364.425 353.455C366.463 350.829 369.095 347.654 371.253 345.822L373.645 343.793L373.723 346.928C373.776 349.033 374.127 351.533 374.474 353.542C374.647 354.538 374.816 355.4 374.942 356.011C375.005 356.316 375.057 356.558 375.093 356.723L375.108 356.789L376.001 358.515L377.134 360.704H374.669H373.902H362.036H359.162L360.806 358.346L362.036 359.204ZM501.261 355.216H516.015L516.854 320.015H500.508L501.261 355.216ZM500.118 222.71C499.397 223.373 498.201 223.705 496.529 223.705H488.918V214.19H496.789C498.692 214.19 499.902 214.61 500.421 215.445C500.94 216.281 501.199 217.507 501.199 219.121C501.199 220.85 500.839 222.047 500.118 222.71ZM515.297 211.38C514.26 209.391 512.673 207.907 510.54 206.926C512.731 205.312 514.217 203.567 514.994 201.693C515.773 199.82 516.163 197.528 516.163 194.817C516.163 189.052 514.649 184.914 511.622 182.405C508.594 179.897 503.881 178.643 497.481 178.643H473.523V236.764H497.307C503.591 236.764 508.422 235.281 511.794 232.31C515.168 229.341 516.855 224.945 516.855 219.121C516.855 215.95 516.335 213.369 515.297 211.38ZM499.513 200.136C500.234 199.358 500.594 198.19 500.594 196.633C500.594 195.134 500.249 193.939 499.556 193.044C498.864 192.151 497.913 191.703 496.702 191.703H488.918V201.304H496.443C497.769 201.304 498.791 200.915 499.513 200.136Z" fill="#C4C4C4"/>
</svg>
