<svg width="40" height="22" viewBox="0 0 40 22" fill="none" xmlns="http://www.w3.org/2000/svg">
<path d="M20.0001 0.000147889C10.3158 0.000147889 0 3.02459 0 8.61796C0 13.5897 8.12635 16.5314 16.7159 17.1115L14.5263 19.3071C13.8948 19.9284 13.8948 20.9229 14.5263 21.5442C14.8212 21.8344 15.2421 22 15.6632 22C16.0844 22 16.4633 21.8344 16.8001 21.5442L21.5578 16.7797C22.1893 16.1584 22.1893 15.1639 21.5578 14.5426L16.7578 9.86069C16.1263 9.23933 15.1157 9.23933 14.4843 9.86069C13.8528 10.4821 13.8528 11.4765 14.4843 12.0979L16.4213 14.0039C8.21071 13.3825 3.15806 10.6063 3.15806 8.65932C3.15806 6.42215 9.72643 3.14889 19.9581 3.14889C30.2318 3.14889 36.7582 6.42185 36.7582 8.65932C36.7582 10.2752 33.3477 12.554 26.9897 13.5898C26.1054 13.714 25.5582 14.5426 25.6845 15.4128C25.8945 16.1998 26.7369 16.7799 27.5789 16.6556C35.3684 15.3713 40 12.3468 40 8.61781C40 3.02467 29.6842 0 19.9999 0L20.0001 0.000147889Z" fill="black"/>
</svg>
